<?xml version="1.0" encoding="iso-8859-1"?>
<!-- Generator: Adobe Illustrator 16.0.0, SVG Export Plug-In . SVG Version: 6.00 Build 0)  -->
<!DOCTYPE svg PUBLIC "-//W3C//DTD SVG 1.1//EN" "http://www.w3.org/Graphics/SVG/1.1/DTD/svg11.dtd">
<svg xmlns="http://www.w3.org/2000/svg" xmlns:xlink="http://www.w3.org/1999/xlink" version="1.1" id="Capa_1" x="0px" y="0px" width="512px" height="512px" viewBox="0 0 439.875 439.875" style="enable-background:new 0 0 439.875 439.875;" xml:space="preserve">
<g>
	<g>
		<path d="M114.75,172.125H76.5v38.25h38.25c11.475,0,19.125-7.65,19.125-19.125S126.225,172.125,114.75,172.125z" fill="#a7a8aa"/>
		<path d="M229.5,172.125h-38.25v95.625h38.25c11.475,0,19.125-7.65,19.125-19.125V191.25    C248.625,179.775,240.975,172.125,229.5,172.125z" fill="#a7a8aa"/>
		<path d="M382.5,95.625H57.375C24.862,95.625,0,120.487,0,153v133.875c0,32.513,24.862,57.375,57.375,57.375H382.5    c32.513,0,57.375-24.862,57.375-57.375V153C439.875,120.487,415.013,95.625,382.5,95.625z M114.75,229.5H76.5v57.375H57.375    V191.25V153h57.375c21.038,0,38.25,17.212,38.25,38.25C153,212.287,135.788,229.5,114.75,229.5z M267.75,248.625    c0,21.037-17.213,38.25-38.25,38.25h-57.375V153H229.5c21.037,0,38.25,17.212,38.25,38.25V248.625z M382.5,172.125H306v38.25    h57.375V229.5H306v57.375h-19.125V153H382.5V172.125z" fill="#a7a8aa"/>
	</g>
</g>
<g>
</g>
<g>
</g>
<g>
</g>
<g>
</g>
<g>
</g>
<g>
</g>
<g>
</g>
<g>
</g>
<g>
</g>
<g>
</g>
<g>
</g>
<g>
</g>
<g>
</g>
<g>
</g>
<g>
</g>
</svg>
